<?xml version="1.0" standalone="no"?><!DOCTYPE svg PUBLIC "-//W3C//DTD SVG 1.1//EN" "http://www.w3.org/Graphics/SVG/1.1/DTD/svg11.dtd"><svg t="1660642840126" class="icon" viewBox="0 0 1024 1024" version="1.1" xmlns="http://www.w3.org/2000/svg" p-id="21413" data-spm-anchor-id="a313x.7781069.0.i3" xmlns:xlink="http://www.w3.org/1999/xlink" width="200" height="200"><defs><style type="text/css"></style></defs><path d="M921.084278 0H102.915722A103.030073 103.030073 0 0 0 0 102.915722v818.168556a103.030073 103.030073 0 0 0 102.915722 102.915722h818.168556a103.041508 103.041508 0 0 0 102.915722-102.915722V102.915722a103.030073 103.030073 0 0 0-102.915722-102.915722zM687.545634 512.657517V514.407084c0 0.583189-0.080046 1.143508-0.148656 1.738133a39.88556 39.88556 0 0 1-15.345877 27.375582l-241.794772 186.391808A40.022781 40.022781 0 0 1 374.041474 722.697071a40.022781 40.022781 0 0 1 7.261276-56.134809L582.045584 511.765581 381.30275 356.9689a40.022781 40.022781 0 0 1-7.261276-56.134809 40.022781 40.022781 0 0 1 56.134809-7.261276l241.794772 186.391808a39.88556 39.88556 0 0 1 15.345878 27.375582c0.06861 0.571754 0.114351 1.143508 0.148656 1.726697V511.708405c0 0.297312 0.091481 0.6518 0.080045 0.949112z" p-id="21414" data-spm-anchor-id="a313x.7781069.0.i0" class="selected" fill="#5e8df0"></path></svg>